G04 #@! TF.FileFunction,Copper,L1,Top,Signal*
%FSLAX46Y46*%
G04 Gerber Fmt 4.6, Leading zero omitted, Abs format (unit mm)*
G04 Created by KiCad (PCBNEW 4.0.5) date Fri Mar 31 10:56:58 2017*
%MOMM*%
%LPD*%
G01*
G04 APERTURE LIST*
%ADD10C,0.100000*%
%ADD11C,0.300000*%
%ADD12C,1.000760*%
%ADD13R,1.700000X1.700000*%
%ADD14O,1.700000X1.700000*%
%ADD15C,1.000000*%
G04 APERTURE END LIST*
D10*
D11*
X81918655Y-150036776D02*
X83029823Y-149531700D01*
X82524746Y-150642868D01*
X107138224Y-152403655D02*
X107643300Y-153514823D01*
X106532132Y-153009746D01*
X80708572Y-117788571D02*
X81851429Y-118217143D01*
X80708572Y-118645714D01*
X80708572Y-102548571D02*
X81851429Y-102977143D01*
X80708572Y-103405714D01*
X80708572Y-87308571D02*
X81851429Y-87737143D01*
X80708572Y-88165714D01*
X103568572Y-117788571D02*
X104711429Y-118217143D01*
X103568572Y-118645714D01*
X103568572Y-102548571D02*
X104711429Y-102977143D01*
X103568572Y-103405714D01*
X103568572Y-87308571D02*
X104711429Y-87737143D01*
X103568572Y-88165714D01*
X103568572Y-72068571D02*
X104711429Y-72497143D01*
X103568572Y-72925714D01*
X80708572Y-72068571D02*
X81851429Y-72497143D01*
X80708572Y-72925714D01*
X107138224Y-133353655D02*
X107643300Y-134464823D01*
X106532132Y-133959746D01*
X81918655Y-130986776D02*
X83029823Y-130481700D01*
X82524746Y-131592868D01*
D12*
X87630000Y-153670000D03*
X86360000Y-153670000D03*
X85090000Y-153670000D03*
X83820000Y-153670000D03*
D13*
X79375000Y-151130000D03*
D14*
X79375000Y-153670000D03*
X79375000Y-156210000D03*
D13*
X83185000Y-147320000D03*
D14*
X85725000Y-147320000D03*
X88265000Y-147320000D03*
D13*
X103505000Y-147320000D03*
D14*
X103505000Y-149860000D03*
X103505000Y-152400000D03*
D13*
X112395000Y-156210000D03*
D14*
X109855000Y-156210000D03*
X107315000Y-156210000D03*
D12*
X109855000Y-151765000D03*
X109855000Y-150495000D03*
X109855000Y-149225000D03*
X109855000Y-147955000D03*
X84455000Y-117475000D03*
X84455000Y-116205000D03*
X84455000Y-114935000D03*
X84455000Y-113665000D03*
D13*
X78105000Y-113030000D03*
D14*
X78105000Y-115570000D03*
X78105000Y-118110000D03*
D13*
X90805000Y-113030000D03*
D14*
X90805000Y-115570000D03*
X90805000Y-118110000D03*
D12*
X84455000Y-102235000D03*
X84455000Y-100965000D03*
X84455000Y-99695000D03*
X84455000Y-98425000D03*
D13*
X78105000Y-97790000D03*
D14*
X78105000Y-100330000D03*
X78105000Y-102870000D03*
D13*
X90805000Y-97790000D03*
D14*
X90805000Y-100330000D03*
X90805000Y-102870000D03*
D12*
X84455000Y-86995000D03*
X84455000Y-85725000D03*
X84455000Y-84455000D03*
X84455000Y-83185000D03*
D13*
X78105000Y-82550000D03*
D14*
X78105000Y-85090000D03*
X78105000Y-87630000D03*
D13*
X90805000Y-82550000D03*
D14*
X90805000Y-85090000D03*
X90805000Y-87630000D03*
D12*
X107315000Y-117475000D03*
X107315000Y-116205000D03*
X107315000Y-114935000D03*
X107315000Y-113665000D03*
D13*
X113665000Y-113030000D03*
D14*
X113665000Y-115570000D03*
X113665000Y-118110000D03*
D13*
X100965000Y-113030000D03*
D14*
X100965000Y-115570000D03*
X100965000Y-118110000D03*
D12*
X107315000Y-102235000D03*
X107315000Y-100965000D03*
X107315000Y-99695000D03*
X107315000Y-98425000D03*
D13*
X113665000Y-97790000D03*
D14*
X113665000Y-100330000D03*
X113665000Y-102870000D03*
D13*
X100965000Y-97790000D03*
D14*
X100965000Y-100330000D03*
X100965000Y-102870000D03*
D12*
X107315000Y-86995000D03*
X107315000Y-85725000D03*
X107315000Y-84455000D03*
X107315000Y-83185000D03*
D13*
X113665000Y-82550000D03*
D14*
X113665000Y-85090000D03*
X113665000Y-87630000D03*
D13*
X100965000Y-82550000D03*
D14*
X100965000Y-85090000D03*
X100965000Y-87630000D03*
D12*
X107315000Y-71755000D03*
X107315000Y-70485000D03*
X107315000Y-69215000D03*
X107315000Y-67945000D03*
D13*
X113665000Y-67310000D03*
D14*
X113665000Y-69850000D03*
X113665000Y-72390000D03*
D13*
X100965000Y-67310000D03*
D14*
X100965000Y-69850000D03*
X100965000Y-72390000D03*
D12*
X84455000Y-71755000D03*
X84455000Y-70485000D03*
X84455000Y-69215000D03*
X84455000Y-67945000D03*
D13*
X90805000Y-67310000D03*
D14*
X90805000Y-69850000D03*
X90805000Y-72390000D03*
D13*
X78105000Y-67310000D03*
D14*
X78105000Y-69850000D03*
X78105000Y-72390000D03*
D12*
X109855000Y-132715000D03*
X109855000Y-131445000D03*
X109855000Y-130175000D03*
X109855000Y-128905000D03*
D13*
X112395000Y-137160000D03*
D14*
X109855000Y-137160000D03*
X107315000Y-137160000D03*
D13*
X103505000Y-128270000D03*
D14*
X103505000Y-130810000D03*
X103505000Y-133350000D03*
D12*
X87630000Y-134620000D03*
X86360000Y-134620000D03*
X85090000Y-134620000D03*
X83820000Y-134620000D03*
D13*
X83185000Y-128270000D03*
D14*
X85725000Y-128270000D03*
X88265000Y-128270000D03*
D13*
X79375000Y-132080000D03*
D14*
X79375000Y-134620000D03*
X79375000Y-137160000D03*
D15*
X87660010Y-150366992D02*
X87660010Y-151908464D01*
X87660381Y-153639619D02*
X87660381Y-153670000D01*
X87690018Y-153609982D02*
X87660381Y-153639619D01*
X87690018Y-151938472D02*
X87690018Y-153609982D01*
X87660010Y-151908464D02*
X87690018Y-151938472D01*
X83185000Y-147320000D02*
X83282998Y-147320000D01*
X83282998Y-147320000D02*
X84932999Y-145669999D01*
X84932999Y-145669999D02*
X89057001Y-145669999D01*
X89915001Y-146527999D02*
X89915001Y-148112001D01*
X89057001Y-145669999D02*
X89915001Y-146527999D01*
X89915001Y-148112001D02*
X87660010Y-150366992D01*
X112395000Y-154360000D02*
X109855000Y-151820000D01*
X112395000Y-156210000D02*
X112395000Y-154360000D01*
X109855000Y-151820000D02*
X109855000Y-151795381D01*
X90805000Y-113030000D02*
X90805000Y-113127998D01*
X90805000Y-113127998D02*
X92455001Y-114777999D01*
X92455001Y-114777999D02*
X92455001Y-118902001D01*
X92455001Y-118902001D02*
X91597001Y-119760001D01*
X90012999Y-119760001D02*
X87758008Y-117505010D01*
X91597001Y-119760001D02*
X90012999Y-119760001D01*
X87758008Y-117505010D02*
X85079555Y-117505010D01*
X85079184Y-117505381D02*
X84455000Y-117505381D01*
X84485381Y-117505381D02*
X84455000Y-117505381D01*
X85079555Y-117505010D02*
X85079184Y-117505381D01*
X90805000Y-97790000D02*
X90805000Y-97887998D01*
X90805000Y-97887998D02*
X92455001Y-99537999D01*
X92455001Y-99537999D02*
X92455001Y-103662001D01*
X92455001Y-103662001D02*
X91597001Y-104520001D01*
X90012999Y-104520001D02*
X87758008Y-102265010D01*
X91597001Y-104520001D02*
X90012999Y-104520001D01*
X87758008Y-102265010D02*
X85079555Y-102265010D01*
X85079184Y-102265381D02*
X84455000Y-102265381D01*
X84485381Y-102265381D02*
X84455000Y-102265381D01*
X85079555Y-102265010D02*
X85079184Y-102265381D01*
X90805000Y-82550000D02*
X90805000Y-82647998D01*
X90805000Y-82647998D02*
X92455001Y-84297999D01*
X92455001Y-84297999D02*
X92455001Y-88422001D01*
X92455001Y-88422001D02*
X91597001Y-89280001D01*
X90012999Y-89280001D02*
X87758008Y-87025010D01*
X91597001Y-89280001D02*
X90012999Y-89280001D01*
X87758008Y-87025010D02*
X85079555Y-87025010D01*
X85079184Y-87025381D02*
X84455000Y-87025381D01*
X84485381Y-87025381D02*
X84455000Y-87025381D01*
X85079555Y-87025010D02*
X85079184Y-87025381D01*
X110618008Y-117505010D02*
X107939555Y-117505010D01*
X113665000Y-113030000D02*
X113665000Y-113127998D01*
X115315001Y-114777999D02*
X115315001Y-118902001D01*
X113665000Y-113127998D02*
X115315001Y-114777999D01*
X114457001Y-119760001D02*
X112872999Y-119760001D01*
X107939555Y-117505010D02*
X107939184Y-117505381D01*
X107939184Y-117505381D02*
X107315000Y-117505381D01*
X107345381Y-117505381D02*
X107315000Y-117505381D01*
X115315001Y-118902001D02*
X114457001Y-119760001D01*
X112872999Y-119760001D02*
X110618008Y-117505010D01*
X110618008Y-102265010D02*
X107939555Y-102265010D01*
X113665000Y-97790000D02*
X113665000Y-97887998D01*
X115315001Y-99537999D02*
X115315001Y-103662001D01*
X113665000Y-97887998D02*
X115315001Y-99537999D01*
X114457001Y-104520001D02*
X112872999Y-104520001D01*
X107939555Y-102265010D02*
X107939184Y-102265381D01*
X107939184Y-102265381D02*
X107315000Y-102265381D01*
X107345381Y-102265381D02*
X107315000Y-102265381D01*
X115315001Y-103662001D02*
X114457001Y-104520001D01*
X112872999Y-104520001D02*
X110618008Y-102265010D01*
X110618008Y-87025010D02*
X107939555Y-87025010D01*
X113665000Y-82550000D02*
X113665000Y-82647998D01*
X115315001Y-84297999D02*
X115315001Y-88422001D01*
X113665000Y-82647998D02*
X115315001Y-84297999D01*
X114457001Y-89280001D02*
X112872999Y-89280001D01*
X107939555Y-87025010D02*
X107939184Y-87025381D01*
X107939184Y-87025381D02*
X107315000Y-87025381D01*
X107345381Y-87025381D02*
X107315000Y-87025381D01*
X115315001Y-88422001D02*
X114457001Y-89280001D01*
X112872999Y-89280001D02*
X110618008Y-87025010D01*
X110618008Y-71785010D02*
X107939555Y-71785010D01*
X113665000Y-67310000D02*
X113665000Y-67407998D01*
X115315001Y-69057999D02*
X115315001Y-73182001D01*
X113665000Y-67407998D02*
X115315001Y-69057999D01*
X114457001Y-74040001D02*
X112872999Y-74040001D01*
X107939555Y-71785010D02*
X107939184Y-71785381D01*
X107939184Y-71785381D02*
X107315000Y-71785381D01*
X107345381Y-71785381D02*
X107315000Y-71785381D01*
X115315001Y-73182001D02*
X114457001Y-74040001D01*
X112872999Y-74040001D02*
X110618008Y-71785010D01*
X90012999Y-74040001D02*
X87758008Y-71785010D01*
X91597001Y-74040001D02*
X90012999Y-74040001D01*
X92455001Y-73182001D02*
X91597001Y-74040001D01*
X92455001Y-69057999D02*
X92455001Y-73182001D01*
X90805000Y-67310000D02*
X90805000Y-67407998D01*
X90805000Y-67407998D02*
X92455001Y-69057999D01*
X87758008Y-71785010D02*
X85079555Y-71785010D01*
X85079184Y-71785381D02*
X84455000Y-71785381D01*
X84485381Y-71785381D02*
X84455000Y-71785381D01*
X85079555Y-71785010D02*
X85079184Y-71785381D01*
X112395000Y-137160000D02*
X112395000Y-135310000D01*
X112395000Y-135310000D02*
X109855000Y-132770000D01*
X109855000Y-132770000D02*
X109855000Y-132745381D01*
X87660010Y-131316992D02*
X87660010Y-132858464D01*
X87660010Y-132858464D02*
X87690018Y-132888472D01*
X87690018Y-132888472D02*
X87690018Y-134559982D01*
X87690018Y-134559982D02*
X87660381Y-134589619D01*
X87660381Y-134589619D02*
X87660381Y-134620000D01*
X83185000Y-128270000D02*
X83282998Y-128270000D01*
X83282998Y-128270000D02*
X84932999Y-126619999D01*
X84932999Y-126619999D02*
X89057001Y-126619999D01*
X89915001Y-129062001D02*
X87660010Y-131316992D01*
X89057001Y-126619999D02*
X89915001Y-127477999D01*
X89915001Y-127477999D02*
X89915001Y-129062001D01*
X80224999Y-157059999D02*
X84193056Y-157059999D01*
X79375000Y-156210000D02*
X80224999Y-157059999D01*
X84193056Y-157059999D02*
X86390008Y-154863047D01*
X86390008Y-154863047D02*
X86390008Y-154305000D01*
X86360000Y-152446945D02*
X86390008Y-152476953D01*
X86360000Y-149225000D02*
X86360000Y-152446945D01*
X86390008Y-152476953D02*
X86390008Y-152985427D01*
X88265000Y-147320000D02*
X86360000Y-149225000D01*
X103505000Y-152400000D02*
X105410000Y-150495000D01*
X107315000Y-156210000D02*
X103505000Y-152400000D01*
X108661953Y-150525008D02*
X109220000Y-150525008D01*
X108631945Y-150495000D02*
X108661953Y-150525008D01*
X105410000Y-150495000D02*
X108631945Y-150495000D01*
X90805000Y-118110000D02*
X88900000Y-116205000D01*
X88900000Y-116205000D02*
X85109565Y-116205000D01*
X78954999Y-117260001D02*
X80010000Y-116205000D01*
X78105000Y-118110000D02*
X78954999Y-117260001D01*
X80010000Y-116205000D02*
X83800435Y-116205000D01*
X90805000Y-102870000D02*
X88900000Y-100965000D01*
X88900000Y-100965000D02*
X85109565Y-100965000D01*
X78954999Y-102020001D02*
X80010000Y-100965000D01*
X78105000Y-102870000D02*
X78954999Y-102020001D01*
X80010000Y-100965000D02*
X83800435Y-100965000D01*
X90805000Y-87630000D02*
X88900000Y-85725000D01*
X88900000Y-85725000D02*
X85109565Y-85725000D01*
X78954999Y-86780001D02*
X80010000Y-85725000D01*
X78105000Y-87630000D02*
X78954999Y-86780001D01*
X80010000Y-85725000D02*
X83800435Y-85725000D01*
X100965000Y-118110000D02*
X101814999Y-117260001D01*
X101814999Y-117260001D02*
X102870000Y-116205000D01*
X102870000Y-116205000D02*
X106660435Y-116205000D01*
X111760000Y-116205000D02*
X107969565Y-116205000D01*
X113665000Y-118110000D02*
X111760000Y-116205000D01*
X100965000Y-102870000D02*
X101814999Y-102020001D01*
X101814999Y-102020001D02*
X102870000Y-100965000D01*
X102870000Y-100965000D02*
X106660435Y-100965000D01*
X111760000Y-100965000D02*
X107969565Y-100965000D01*
X113665000Y-102870000D02*
X111760000Y-100965000D01*
X100965000Y-87630000D02*
X101814999Y-86780001D01*
X101814999Y-86780001D02*
X102870000Y-85725000D01*
X102870000Y-85725000D02*
X106660435Y-85725000D01*
X111760000Y-85725000D02*
X107969565Y-85725000D01*
X113665000Y-87630000D02*
X111760000Y-85725000D01*
X100965000Y-72390000D02*
X101814999Y-71540001D01*
X101814999Y-71540001D02*
X102870000Y-70485000D01*
X102870000Y-70485000D02*
X106660435Y-70485000D01*
X111760000Y-70485000D02*
X107969565Y-70485000D01*
X113665000Y-72390000D02*
X111760000Y-70485000D01*
X90805000Y-72390000D02*
X88900000Y-70485000D01*
X88900000Y-70485000D02*
X85109565Y-70485000D01*
X80010000Y-70485000D02*
X83800435Y-70485000D01*
X78954999Y-71540001D02*
X80010000Y-70485000D01*
X78105000Y-72390000D02*
X78954999Y-71540001D01*
X107315000Y-137160000D02*
X103505000Y-133350000D01*
X108661953Y-131475008D02*
X109220000Y-131475008D01*
X105410000Y-131445000D02*
X108631945Y-131445000D01*
X108631945Y-131445000D02*
X108661953Y-131475008D01*
X103505000Y-133350000D02*
X105410000Y-131445000D01*
X86360000Y-130175000D02*
X86360000Y-133396945D01*
X86360000Y-133396945D02*
X86390008Y-133426953D01*
X86390008Y-133426953D02*
X86390008Y-133935427D01*
X88265000Y-128270000D02*
X86360000Y-130175000D01*
X86390008Y-135813047D02*
X86390008Y-135255000D01*
X79375000Y-137160000D02*
X80224999Y-138009999D01*
X80224999Y-138009999D02*
X84193056Y-138009999D01*
X84193056Y-138009999D02*
X86390008Y-135813047D01*
X84444184Y-154970381D02*
X85090000Y-154324565D01*
X80675381Y-154970381D02*
X84444184Y-154970381D01*
X79375000Y-153670000D02*
X80675381Y-154970381D01*
X84875001Y-148169999D02*
X84875001Y-152800436D01*
X84875001Y-152800436D02*
X85090000Y-153015435D01*
X85725000Y-147320000D02*
X84875001Y-148169999D01*
X114045001Y-152760436D02*
X110509565Y-149225000D01*
X114045001Y-157700001D02*
X114045001Y-152760436D01*
X110302920Y-157860001D02*
X113885001Y-157860001D01*
X109855000Y-156210000D02*
X109855000Y-157412081D01*
X109855000Y-157412081D02*
X110302920Y-157860001D01*
X113885001Y-157860001D02*
X114045001Y-157700001D01*
X108985436Y-149010001D02*
X109200435Y-149225000D01*
X103505000Y-149860000D02*
X104354999Y-149010001D01*
X104354999Y-149010001D02*
X108985436Y-149010001D01*
X89955001Y-114720001D02*
X85324564Y-114720001D01*
X90805000Y-115570000D02*
X89955001Y-114720001D01*
X78954999Y-114720001D02*
X83585436Y-114720001D01*
X78105000Y-115570000D02*
X78954999Y-114720001D01*
X89955001Y-99480001D02*
X85324564Y-99480001D01*
X90805000Y-100330000D02*
X89955001Y-99480001D01*
X78954999Y-99480001D02*
X83585436Y-99480001D01*
X78105000Y-100330000D02*
X78954999Y-99480001D01*
X89955001Y-84240001D02*
X85324564Y-84240001D01*
X90805000Y-85090000D02*
X89955001Y-84240001D01*
X78954999Y-84240001D02*
X83585436Y-84240001D01*
X78105000Y-85090000D02*
X78954999Y-84240001D01*
X100965000Y-115570000D02*
X101814999Y-114720001D01*
X101814999Y-114720001D02*
X106445436Y-114720001D01*
X112815001Y-114720001D02*
X108184564Y-114720001D01*
X113665000Y-115570000D02*
X112815001Y-114720001D01*
X100965000Y-100330000D02*
X101814999Y-99480001D01*
X101814999Y-99480001D02*
X106445436Y-99480001D01*
X112815001Y-99480001D02*
X108184564Y-99480001D01*
X113665000Y-100330000D02*
X112815001Y-99480001D01*
X100965000Y-85090000D02*
X101814999Y-84240001D01*
X101814999Y-84240001D02*
X106445436Y-84240001D01*
X112815001Y-84240001D02*
X108184564Y-84240001D01*
X113665000Y-85090000D02*
X112815001Y-84240001D01*
X100965000Y-69850000D02*
X101814999Y-69000001D01*
X101814999Y-69000001D02*
X106445436Y-69000001D01*
X112815001Y-69000001D02*
X108184564Y-69000001D01*
X113665000Y-69850000D02*
X112815001Y-69000001D01*
X90805000Y-69850000D02*
X89955001Y-69000001D01*
X89955001Y-69000001D02*
X85324564Y-69000001D01*
X78954999Y-69000001D02*
X83585436Y-69000001D01*
X78105000Y-69850000D02*
X78954999Y-69000001D01*
X109855000Y-137160000D02*
X109855000Y-138362081D01*
X109855000Y-138362081D02*
X110302920Y-138810001D01*
X110302920Y-138810001D02*
X113885001Y-138810001D01*
X113885001Y-138810001D02*
X114045001Y-138650001D01*
X114045001Y-138650001D02*
X114045001Y-133710436D01*
X114045001Y-133710436D02*
X110509565Y-130175000D01*
X103505000Y-130810000D02*
X104354999Y-129960001D01*
X104354999Y-129960001D02*
X108985436Y-129960001D01*
X108985436Y-129960001D02*
X109200435Y-130175000D01*
X85725000Y-128270000D02*
X84875001Y-129119999D01*
X84875001Y-129119999D02*
X84875001Y-133750436D01*
X84875001Y-133750436D02*
X85090000Y-133965435D01*
X79375000Y-134620000D02*
X80675381Y-135920381D01*
X80675381Y-135920381D02*
X84444184Y-135920381D01*
X84444184Y-135920381D02*
X85090000Y-135274565D01*
X83765000Y-153670000D02*
X83789619Y-153670000D01*
X81225000Y-151130000D02*
X83765000Y-153670000D01*
X79375000Y-151130000D02*
X81225000Y-151130000D01*
X109250381Y-147320000D02*
X109855000Y-147924619D01*
X103505000Y-147320000D02*
X109250381Y-147320000D01*
X83850381Y-113030000D02*
X84455000Y-113634619D01*
X78105000Y-113030000D02*
X83850381Y-113030000D01*
X84338545Y-113634619D02*
X84455000Y-113634619D01*
X83850381Y-97790000D02*
X84455000Y-98394619D01*
X78105000Y-97790000D02*
X83850381Y-97790000D01*
X84338545Y-98394619D02*
X84455000Y-98394619D01*
X83850381Y-82550000D02*
X84455000Y-83154619D01*
X78105000Y-82550000D02*
X83850381Y-82550000D01*
X84338545Y-83154619D02*
X84455000Y-83154619D01*
X107198545Y-113634619D02*
X107315000Y-113634619D01*
X106710381Y-113030000D02*
X107315000Y-113634619D01*
X100965000Y-113030000D02*
X106710381Y-113030000D01*
X107198545Y-98394619D02*
X107315000Y-98394619D01*
X106710381Y-97790000D02*
X107315000Y-98394619D01*
X100965000Y-97790000D02*
X106710381Y-97790000D01*
X107198545Y-83154619D02*
X107315000Y-83154619D01*
X106710381Y-82550000D02*
X107315000Y-83154619D01*
X100965000Y-82550000D02*
X106710381Y-82550000D01*
X107198545Y-67914619D02*
X107315000Y-67914619D01*
X106710381Y-67310000D02*
X107315000Y-67914619D01*
X100965000Y-67310000D02*
X106710381Y-67310000D01*
X84338545Y-67914619D02*
X84455000Y-67914619D01*
X83850381Y-67310000D02*
X84455000Y-67914619D01*
X78105000Y-67310000D02*
X83850381Y-67310000D01*
X103505000Y-128270000D02*
X109250381Y-128270000D01*
X109250381Y-128270000D02*
X109855000Y-128874619D01*
X79375000Y-132080000D02*
X81225000Y-132080000D01*
X81225000Y-132080000D02*
X83765000Y-134620000D01*
X83765000Y-134620000D02*
X83789619Y-134620000D01*
M02*
