M48
;DRILL file {KiCad 4.0.5} date Fri Mar 31 10:56:51 2017
;FORMAT={-:-/ absolute / metric / decimal}
FMAT,2
METRIC,TZ
T1C0.701
T2C1.000
%
G90
G05
M71
T1
X83.82Y-134.62
X83.82Y-153.67
X84.455Y-67.945
X84.455Y-69.215
X84.455Y-70.485
X84.455Y-71.755
X84.455Y-83.185
X84.455Y-84.455
X84.455Y-85.725
X84.455Y-86.995
X84.455Y-98.425
X84.455Y-99.695
X84.455Y-100.965
X84.455Y-102.235
X84.455Y-113.665
X84.455Y-114.935
X84.455Y-116.205
X84.455Y-117.475
X85.09Y-134.62
X85.09Y-153.67
X86.36Y-134.62
X86.36Y-153.67
X87.63Y-134.62
X87.63Y-153.67
X107.315Y-67.945
X107.315Y-69.215
X107.315Y-70.485
X107.315Y-71.755
X107.315Y-83.185
X107.315Y-84.455
X107.315Y-85.725
X107.315Y-86.995
X107.315Y-98.425
X107.315Y-99.695
X107.315Y-100.965
X107.315Y-102.235
X107.315Y-113.665
X107.315Y-114.935
X107.315Y-116.205
X107.315Y-117.475
X109.855Y-128.905
X109.855Y-130.175
X109.855Y-131.445
X109.855Y-132.715
X109.855Y-147.955
X109.855Y-149.225
X109.855Y-150.495
X109.855Y-151.765
T2
X78.105Y-67.31
X78.105Y-69.85
X78.105Y-72.39
X78.105Y-82.55
X78.105Y-85.09
X78.105Y-87.63
X78.105Y-97.79
X78.105Y-100.33
X78.105Y-102.87
X78.105Y-113.03
X78.105Y-115.57
X78.105Y-118.11
X79.375Y-132.08
X79.375Y-134.62
X79.375Y-137.16
X79.375Y-151.13
X79.375Y-153.67
X79.375Y-156.21
X83.185Y-128.27
X83.185Y-147.32
X85.725Y-128.27
X85.725Y-147.32
X88.265Y-128.27
X88.265Y-147.32
X90.805Y-67.31
X90.805Y-69.85
X90.805Y-72.39
X90.805Y-82.55
X90.805Y-85.09
X90.805Y-87.63
X90.805Y-97.79
X90.805Y-100.33
X90.805Y-102.87
X90.805Y-113.03
X90.805Y-115.57
X90.805Y-118.11
X100.965Y-67.31
X100.965Y-69.85
X100.965Y-72.39
X100.965Y-82.55
X100.965Y-85.09
X100.965Y-87.63
X100.965Y-97.79
X100.965Y-100.33
X100.965Y-102.87
X100.965Y-113.03
X100.965Y-115.57
X100.965Y-118.11
X103.505Y-128.27
X103.505Y-130.81
X103.505Y-133.35
X103.505Y-147.32
X103.505Y-149.86
X103.505Y-152.4
X107.315Y-137.16
X107.315Y-156.21
X109.855Y-137.16
X109.855Y-156.21
X112.395Y-137.16
X112.395Y-156.21
X113.665Y-67.31
X113.665Y-69.85
X113.665Y-72.39
X113.665Y-82.55
X113.665Y-85.09
X113.665Y-87.63
X113.665Y-97.79
X113.665Y-100.33
X113.665Y-102.87
X113.665Y-113.03
X113.665Y-115.57
X113.665Y-118.11
T0
M30
