M48
;DRILL file {KiCad 4.0.5} date Tue Mar 28 14:58:29 2017
;FORMAT={-:-/ absolute / metric / decimal}
FMAT,2
METRIC,TZ
T1C0.762
T2C0.813
T3C0.900
T4C1.000
%
G90
G05
M71
T1
X123.46Y-69.222
X125.515Y-67.729
X127.57Y-66.236
X129.625Y-64.743
X131.68Y-63.25
X133.735Y-61.757
X135.79Y-60.264
X137.845Y-58.771
X139.9Y-57.278
X141.955Y-55.785
X143.51Y-101.346
X143.51Y-103.886
X143.51Y-106.426
X143.51Y-108.966
X143.51Y-111.506
X143.51Y-114.046
X143.51Y-116.586
X143.51Y-119.126
X151.905Y-49.422
X153.986Y-50.879
X156.067Y-52.336
X158.147Y-53.792
X160.228Y-55.249
X162.309Y-56.706
X164.389Y-58.163
X166.47Y-59.62
X167.23Y-93.43
X169.77Y-93.43
X172.31Y-93.43
X174.85Y-93.43
X177.39Y-93.43
T2
X125.476Y-92.456
X125.476Y-94.996
X125.476Y-97.536
X125.476Y-100.076
X125.476Y-102.616
X125.476Y-105.156
X125.476Y-107.696
X125.476Y-110.236
X125.476Y-112.776
X125.476Y-115.316
X125.476Y-117.856
X125.476Y-120.396
X125.476Y-122.936
X125.476Y-125.476
X128.016Y-92.456
X130.556Y-92.456
X133.096Y-92.456
X135.636Y-92.456
X138.176Y-92.456
X140.716Y-92.456
X140.716Y-94.996
X140.716Y-97.536
X140.716Y-100.076
X140.716Y-102.616
X140.716Y-105.156
X140.716Y-107.696
X140.716Y-110.236
X140.716Y-112.776
X140.716Y-115.316
X140.716Y-117.856
X140.716Y-120.396
X140.716Y-122.936
X140.716Y-125.476
T3
X156.067Y-62.23
X165.212Y-71.232
T4
X118.19Y-91.65
X118.19Y-94.19
X118.19Y-96.73
X166.116Y-119.38
X166.116Y-121.92
X169.926Y-118.11
X169.926Y-120.65
X183.691Y-100.337
X184.56Y-97.95
T0
M30
